<?xml version="1.0" standalone="no"?><!DOCTYPE svg PUBLIC "-//W3C//DTD SVG 1.1//EN" "http://www.w3.org/Graphics/SVG/1.1/DTD/svg11.dtd"><svg height="48" node-id="1" sillyvg="true" template-height="48" template-width="48" version="1.1" viewBox="0 0 48 48" width="48" xmlns="http://www.w3.org/2000/svg" xmlns:xlink="http://www.w3.org/1999/xlink"><defs node-id="19"><filter height="2.083" id="filter-2" node-id="6" width="1.929" x="-0.464" y="-0.458"><feOffset color-interpolation-filters="linearRGB" dx="0" dy="1" in="SourceAlpha" result="shadowOffsetOuter1"></feOffset><feGaussianBlur color-interpolation-filters="linearRGB" in="shadowOffsetOuter1" result="shadowBlurOuter1" stdDeviation="2 2"></feGaussianBlur><feColorMatrix color-interpolation-filters="linearRGB" in="shadowBlurOuter1" result="result3" type="matrix" values="0 0 0 0 0 0 0 0 0 0.239215686 0 0 0 0 0.149019608 0 0 0 0.2 0"></feColorMatrix></filter></defs><path d="M 2.56 7.00 L 7.00 7.00 L 7.00 7.00 L 9.94 13.00 L 38.04 13.00 L 41.00 7.00 L 45.44 7.00 C 46.33 7.00 46.65 7.09 46.98 7.27 C 47.30 7.44 47.56 7.70 47.73 8.02 C 47.91 8.35 48.00 8.67 48.00 9.56 L 48.00 38.44 C 48.00 39.33 47.91 39.65 47.73 39.98 C 47.56 40.30 47.30 40.56 46.98 40.73 C 46.65 40.91 46.33 41.00 45.44 41.00 L 2.56 41.00 C 1.67 41.00 1.35 40.91 1.02 40.73 C 0.70 40.56 0.44 40.30 0.27 39.98 C 0.09 39.65 -0.00 39.33 -0.00 38.44 L -0.00 9.56 C -0.00 8.67 0.09 8.35 0.27 8.02 C 0.44 7.70 0.70 7.44 1.02 7.27 C 1.35 7.09 1.67 7.00 2.56 7.00 Z" fill="#5181ff" fill-rule="nonzero" id="矩形" node-id="11" stroke="none" target-height="34" target-width="48" target-x="-0" target-y="7"></path><path d="M 12.50 7.00 L 35.50 7.00 C 36.33 7.00 37.00 7.67 37.00 8.50 C 37.00 9.33 36.33 10.00 35.50 10.00 L 12.50 10.00 C 11.67 10.00 11.00 9.33 11.00 8.50 C 11.00 7.67 11.67 7.00 12.50 7.00 Z" fill="#1e5eff" fill-rule="nonzero" id="矩形" node-id="12" stroke="none" target-height="3" target-width="26" target-x="11" target-y="7"></path><g node-id="47"><path d="M 17.50 33.00 L 30.50 33.00 C 30.78 33.00 31.00 33.22 31.00 33.50 C 31.00 33.78 30.78 34.00 30.50 34.00 L 17.50 34.00 C 17.22 34.00 17.00 33.78 17.00 33.50 C 17.00 33.22 17.22 33.00 17.50 33.00 Z" fill="#ffffff" fill-opacity="0.4" fill-rule="nonzero" group-id="1" id="矩形" node-id="13" stroke="none" target-height="1" target-width="14" target-x="17" target-y="33"></path></g><g node-id="48"><g node-id="49"><path d="M 18.50 20.00 C 19.33 20.00 20.00 20.67 20.00 21.50 L 20.00 32.00 L 17.00 32.00 L 17.00 21.50 C 17.00 20.67 17.67 20.00 18.50 20.00 Z M 29.50 20.00 C 30.33 20.00 31.00 20.67 31.00 21.50 L 31.00 32.00 L 28.00 32.00 L 28.00 21.50 C 28.00 20.67 28.67 20.00 29.50 20.00 Z" fill="#000000" fill-rule="nonzero" filter="url(#filter-2)" group-id="2,3" node-id="40" stroke="none" target-height="12" target-width="14" target-x="17" target-y="20"></path></g><path d="M 18.50 20.00 C 19.33 20.00 20.00 20.67 20.00 21.50 L 20.00 32.00 L 17.00 32.00 L 17.00 21.50 C 17.00 20.67 17.67 20.00 18.50 20.00 Z M 29.50 20.00 C 30.33 20.00 31.00 20.67 31.00 21.50 L 31.00 32.00 L 28.00 32.00 L 28.00 21.50 C 28.00 20.67 28.67 20.00 29.50 20.00 Z" fill="#ffffff" fill-rule="nonzero" group-id="2,4" node-id="45" stroke="none" target-height="12" target-width="14" target-x="17" target-y="20"></path></g><path d="M 24.00 24.00 C 24.83 24.00 25.50 24.67 25.50 25.50 L 25.50 32.00 L 25.50 32.00 L 22.50 32.00 L 22.50 25.50 C 22.50 24.67 23.17 24.00 24.00 24.00 Z" fill="#ffffff" fill-rule="nonzero" id="矩形-copy" node-id="17" stroke="none" target-height="8" target-width="3" target-x="22.5" target-y="24"></path></svg>